<?xml version="1.0" standalone="no"?><!DOCTYPE svg PUBLIC "-//W3C//DTD SVG 1.1//EN" "http://www.w3.org/Graphics/SVG/1.1/DTD/svg11.dtd"><svg t="1585279463713" class="icon" viewBox="0 0 1024 1024" version="1.1" xmlns="http://www.w3.org/2000/svg" p-id="20937" xmlns:xlink="http://www.w3.org/1999/xlink" width="200" height="200"><defs><style type="text/css"></style></defs><path d="M34.133333 0 85.333333 0 85.333333 17.066667 34.133333 17.066667 34.133333 0 34.133333 0 34.133333 0 34.133333 0 34.133333 0ZM119.466667 0 170.666667 0 170.666667 17.066667 119.466667 17.066667 119.466667 0 119.466667 0 119.466667 0 119.466667 0 119.466667 0ZM204.8 0 256 0 256 17.066667 204.8 17.066667 204.8 0 204.8 0 204.8 0 204.8 0 204.8 0ZM290.133333 0 341.333333 0 341.333333 17.066667 290.133333 17.066667 290.133333 0 290.133333 0 290.133333 0 290.133333 0 290.133333 0ZM375.466667 0 426.666667 0 426.666667 17.066667 375.466667 17.066667 375.466667 0 375.466667 0 375.466667 0 375.466667 0 375.466667 0ZM460.8 0 512 0 512 17.066667 460.8 17.066667 460.8 0 460.8 0 460.8 0 460.8 0 460.8 0ZM716.8 0 768 0 768 17.066667 716.8 17.066667 716.8 0 716.8 0 716.8 0 716.8 0 716.8 0ZM802.133333 0 853.333333 0 853.333333 17.066667 802.133333 17.066667 802.133333 0 802.133333 0 802.133333 0 802.133333 0 802.133333 0ZM546.133333 0 597.333333 0 597.333333 17.066667 546.133333 17.066667 546.133333 0 546.133333 0 546.133333 0 546.133333 0 546.133333 0ZM631.466667 0 682.666667 0 682.666667 17.066667 631.466667 17.066667 631.466667 0 631.466667 0 631.466667 0 631.466667 0 631.466667 0ZM887.466667 0 938.666667 0 938.666667 17.066667 887.466667 17.066667 887.466667 0 887.466667 0 887.466667 0 887.466667 0 887.466667 0ZM1006.933333 1006.933333 972.8 1006.933333 972.8 1024 1024 1024 1024 1006.933333 1006.933333 1006.933333 1006.933333 1024 1024 1024 1024 972.8 1006.933333 972.8 1006.933333 1006.933333 1006.933333 1006.933333ZM972.8 0 1024 0 1024 17.066667 972.8 17.066667 972.8 0 972.8 0ZM34.133333 1006.933333 85.333333 1006.933333 85.333333 1024 34.133333 1024 34.133333 1006.933333 34.133333 1006.933333ZM119.466667 1006.933333 170.666667 1006.933333 170.666667 1024 119.466667 1024 119.466667 1006.933333 119.466667 1006.933333ZM204.8 1006.933333 256 1006.933333 256 1024 204.8 1024 204.8 1006.933333 204.8 1006.933333ZM290.133333 1006.933333 341.333333 1006.933333 341.333333 1024 290.133333 1024 290.133333 1006.933333 290.133333 1006.933333ZM375.466667 1006.933333 426.666667 1006.933333 426.666667 1024 375.466667 1024 375.466667 1006.933333 375.466667 1006.933333ZM460.8 1006.933333 512 1006.933333 512 1024 460.8 1024 460.8 1006.933333 460.8 1006.933333ZM716.8 1006.933333 768 1006.933333 768 1024 716.8 1024 716.8 1006.933333 716.8 1006.933333ZM802.133333 1006.933333 853.333333 1006.933333 853.333333 1024 802.133333 1024 802.133333 1006.933333 802.133333 1006.933333ZM546.133333 1006.933333 597.333333 1006.933333 597.333333 1024 546.133333 1024 546.133333 1006.933333 546.133333 1006.933333ZM631.466667 1006.933333 682.666667 1006.933333 682.666667 1024 631.466667 1024 631.466667 1006.933333 631.466667 1006.933333ZM887.466667 1006.933333 938.666667 1006.933333 938.666667 1024 887.466667 1024 887.466667 1006.933333 887.466667 1006.933333ZM17.066667 34.133333 17.066667 85.333333 0 85.333333 0 34.133333 17.066667 34.133333 17.066667 34.133333ZM17.066667 119.466667 17.066667 170.666667 0 170.666667 0 119.466667 17.066667 119.466667 17.066667 119.466667ZM17.066667 204.8 17.066667 256 0 256 0 204.8 17.066667 204.8 17.066667 204.8ZM17.066667 290.133333 17.066667 341.333333 0 341.333333 0 290.133333 17.066667 290.133333 17.066667 290.133333ZM17.066667 375.466667 17.066667 426.666667 0 426.666667 0 375.466667 17.066667 375.466667 17.066667 375.466667ZM17.066667 460.8 17.066667 512 0 512 0 460.8 17.066667 460.8 17.066667 460.8ZM17.066667 716.8 17.066667 768 0 768 0 716.8 17.066667 716.8 17.066667 716.8ZM17.066667 802.133333 17.066667 853.333333 0 853.333333 0 802.133333 17.066667 802.133333 17.066667 802.133333ZM17.066667 546.133333 17.066667 597.333333 0 597.333333 0 546.133333 17.066667 546.133333 17.066667 546.133333ZM17.066667 631.466667 17.066667 682.666667 0 682.666667 0 631.466667 17.066667 631.466667 17.066667 631.466667ZM17.066667 887.466667 17.066667 938.666667 0 938.666667 0 887.466667 17.066667 887.466667 17.066667 887.466667ZM17.066667 972.8 17.066667 1024 0 1024 0 972.8 17.066667 972.8 17.066667 972.8ZM1024 34.133333 1024 85.333333 1006.933333 85.333333 1006.933333 34.133333 1024 34.133333 1024 34.133333ZM1024 119.466667 1024 170.666667 1006.933333 170.666667 1006.933333 119.466667 1024 119.466667 1024 119.466667ZM1024 204.8 1024 256 1006.933333 256 1006.933333 204.8 1024 204.8 1024 204.8ZM1024 290.133333 1024 341.333333 1006.933333 341.333333 1006.933333 290.133333 1024 290.133333 1024 290.133333ZM1024 375.466667 1024 426.666667 1006.933333 426.666667 1006.933333 375.466667 1024 375.466667 1024 375.466667ZM1024 460.8 1024 512 1006.933333 512 1006.933333 460.8 1024 460.8 1024 460.8ZM1024 716.8 1024 768 1006.933333 768 1006.933333 716.8 1024 716.8 1024 716.8ZM1024 802.133333 1024 853.333333 1006.933333 853.333333 1006.933333 802.133333 1024 802.133333 1024 802.133333ZM1024 546.133333 1024 597.333333 1006.933333 597.333333 1006.933333 546.133333 1024 546.133333 1024 546.133333ZM1024 631.466667 1024 682.666667 1006.933333 682.666667 1006.933333 631.466667 1024 631.466667 1024 631.466667ZM1024 887.466667 1024 938.666667 1006.933333 938.666667 1006.933333 887.466667 1024 887.466667 1024 887.466667Z" p-id="20938" fill="#707070"></path><path d="M494.933333 494.933333 307.087321 494.933333C297.727084 494.933333 290.133333 502.574339 290.133333 512 290.133333 521.491374 297.723892 529.066667 307.087321 529.066667L494.933333 529.066667 494.933333 716.743687C494.933333 726.164842 502.574339 733.866667 512 733.866667 521.491374 733.866667 529.066667 726.200446 529.066667 716.743687L529.066667 529.066667 580.379344 529.066667C589.739585 529.066667 597.333333 521.425661 597.333333 512 597.333333 502.508626 589.742773 494.933333 580.379344 494.933333L529.066667 494.933333 529.066667 307.256313C529.066667 297.835156 521.425661 290.133333 512 290.133333 502.508626 290.133333 494.933333 297.799552 494.933333 307.256313L494.933333 494.933333 494.933333 494.933333ZM631.466667 512C631.466667 502.574339 639.16331 494.933333 648.375945 494.933333L716.957389 494.933333C726.296125 494.933333 733.866667 502.508626 733.866667 512 733.866667 521.425661 726.170023 529.066667 716.957389 529.066667L648.375945 529.066667C639.037208 529.066667 631.466667 521.491374 631.466667 512L631.466667 512Z" p-id="20939" fill="#707070"></path></svg>