<?xml version="1.0" standalone="no"?><!DOCTYPE svg PUBLIC "-//W3C//DTD SVG 1.1//EN" "http://www.w3.org/Graphics/SVG/1.1/DTD/svg11.dtd"><svg t="1585277062292" class="icon" viewBox="0 0 1024 1024" version="1.1" xmlns="http://www.w3.org/2000/svg" p-id="16312" xmlns:xlink="http://www.w3.org/1999/xlink" width="200" height="200"><defs><style type="text/css"></style></defs><path d="M86.966272 394.641408l847.872-6.10304 3.03104 421.888-847.872 6.10304z" fill="#BAD4FF" p-id="16313"></path><path d="M165.4784 323.584c-17.2032 0-31.1296-13.9264-31.1296-31.1296 0-17.2032 13.9264-31.1296 31.1296-31.1296 17.2032 0 31.1296 13.9264 31.1296 31.1296 0 17.2032-13.9264 31.1296-31.1296 31.1296z m0-51.6096c-11.4688 0-20.48 9.0112-20.48 20.48s9.0112 20.48 20.48 20.48 20.48-9.0112 20.48-20.48-9.0112-20.48-20.48-20.48z" fill="#004DA0" p-id="16314"></path><path d="M923.2384 833.9456H99.9424c-17.2032 0-31.1296-13.9264-31.1296-31.1296V222.8224c0-17.2032 13.9264-31.1296 31.1296-31.1296h822.4768c17.2032 0 31.1296 13.9264 31.1296 31.1296v579.1744c0.8192 17.2032-13.1072 31.9488-30.3104 31.9488zM99.9424 212.1728c-5.7344 0-10.6496 4.9152-10.6496 10.6496v579.1744c0 5.7344 4.9152 10.6496 10.6496 10.6496h822.4768c5.7344 0 10.6496-4.9152 10.6496-10.6496V222.8224c0-5.7344-4.9152-10.6496-10.6496-10.6496H99.9424z" fill="#004DA0" p-id="16315"></path><path d="M343.2448 323.584c-17.2032 0-31.1296-13.9264-31.1296-31.1296 0-17.2032 13.9264-31.1296 31.1296-31.1296 17.2032 0 31.1296 13.9264 31.1296 31.1296 0 17.2032-13.9264 31.1296-31.1296 31.1296z m0-51.6096c-11.4688 0-20.48 9.0112-20.48 20.48s9.0112 20.48 20.48 20.48 20.48-9.0112 20.48-20.48-9.0112-20.48-20.48-20.48zM253.1328 323.584c-17.2032 0-31.1296-13.9264-31.1296-31.1296 0-17.2032 13.9264-31.1296 31.1296-31.1296 17.2032 0 31.1296 13.9264 31.1296 31.1296 0 17.2032-13.9264 31.1296-31.1296 31.1296z m0-51.6096c-11.4688 0-20.48 9.0112-20.48 20.48s9.0112 20.48 20.48 20.48 20.48-9.0112 20.48-20.48c0.8192-11.4688-9.0112-20.48-20.48-20.48zM165.4784 323.584c-17.2032 0-31.1296-13.9264-31.1296-31.1296 0-17.2032 13.9264-31.1296 31.1296-31.1296 17.2032 0 31.1296 13.9264 31.1296 31.1296 0 17.2032-13.9264 31.1296-31.1296 31.1296z m0-51.6096c-11.4688 0-20.48 9.0112-20.48 20.48s9.0112 20.48 20.48 20.48 20.48-9.0112 20.48-20.48-9.0112-20.48-20.48-20.48zM421.0688 673.3824l-7.3728-20.48h-66.3552l-7.3728 20.48c-3.2768 8.192-5.7344 13.9264-7.3728 16.384-2.4576 2.4576-5.7344 4.096-10.6496 4.096-4.096 0-8.192-1.6384-10.6496-4.9152-3.2768-3.2768-4.9152-6.5536-4.9152-10.6496 0-2.4576 0-4.9152 0.8192-6.5536 0.8192-2.4576 1.6384-5.7344 3.2768-9.8304l40.96-104.8576c0.8192-3.2768 2.4576-6.5536 4.096-10.6496s3.2768-7.3728 4.9152-10.6496c1.6384-2.4576 4.096-4.9152 7.3728-6.5536 3.2768-1.6384 6.5536-2.4576 11.4688-2.4576 4.9152 0 8.192 0.8192 11.4688 2.4576 3.2768 1.6384 5.7344 4.096 7.3728 6.5536 1.6384 2.4576 3.2768 5.7344 4.9152 9.0112 1.6384 3.2768 3.2768 7.3728 4.9152 12.288l42.5984 104.8576c3.2768 8.192 4.9152 13.9264 4.9152 17.2032 0 4.096-1.6384 7.3728-4.9152 10.6496-3.2768 3.2768-6.5536 4.9152-11.4688 4.9152-2.4576 0-4.9152-0.8192-6.5536-1.6384-1.6384-0.8192-3.2768-2.4576-4.9152-4.096-1.6384-1.6384-2.4576-4.096-4.096-7.3728-0.8192-3.2768-1.6384-5.7344-2.4576-8.192z m-65.536-45.056h48.3328l-24.576-67.1744-23.7568 67.1744zM556.2368 628.3264h-30.3104v45.8752c0 6.5536-1.6384 11.4688-4.9152 14.7456-3.2768 3.2768-7.3728 4.9152-11.4688 4.9152-4.9152 0-9.0112-1.6384-12.288-4.9152-3.2768-3.2768-4.9152-8.192-4.9152-14.7456V549.6832c0-7.3728 1.6384-12.288 4.9152-15.5648 3.2768-3.2768 9.0112-4.9152 15.5648-4.9152h42.5984c12.288 0 22.1184 0.8192 28.672 3.2768 6.5536 1.6384 12.288 4.9152 17.2032 9.0112 4.9152 4.096 8.192 9.8304 10.6496 15.5648 2.4576 6.5536 4.096 13.1072 4.096 21.2992 0 16.384-4.9152 29.4912-15.5648 37.6832-8.192 8.192-23.7568 12.288-44.2368 12.288z m-7.3728-74.5472h-22.1184v49.9712h22.1184c7.3728 0 13.9264-0.8192 19.6608-2.4576 4.9152-1.6384 9.0112-4.096 12.288-8.192 2.4576-4.096 4.096-8.192 4.096-14.7456 0-7.3728-2.4576-13.1072-6.5536-17.2032-5.7344-4.9152-14.7456-7.3728-29.4912-7.3728zM659.456 674.2016V546.4064c0-6.5536 1.6384-11.4688 4.9152-14.7456 3.2768-3.2768 6.5536-4.9152 11.4688-4.9152 4.9152 0 9.0112 1.6384 12.288 4.9152 3.2768 3.2768 4.9152 8.192 4.9152 14.7456v127.7952c0 6.5536-1.6384 11.4688-4.9152 14.7456-3.2768 3.2768-7.3728 4.9152-12.288 4.9152s-9.0112-1.6384-11.4688-4.9152c-3.2768-3.2768-4.9152-8.192-4.9152-14.7456z" fill="#004DA0" p-id="16316"></path><path d="M79.4624 379.2896h865.0752v20.48H79.4624z" fill="#004DA0" p-id="16317"></path></svg>