<?xml version="1.0" standalone="no"?><!DOCTYPE svg PUBLIC "-//W3C//DTD SVG 1.1//EN" "http://www.w3.org/Graphics/SVG/1.1/DTD/svg11.dtd"><svg t="1584417956314" class="icon" viewBox="0 0 1024 1024" version="1.1" xmlns="http://www.w3.org/2000/svg" p-id="1946" data-spm-anchor-id="a313x.7781069.0.i3" xmlns:xlink="http://www.w3.org/1999/xlink" width="114" height="114"><defs><style type="text/css"></style></defs><path d="M639.96832 0h-256v128h256V0z m325.44 918.08L639.96832 384V192h-256v192L58.52832 918.08A71.296 71.296 0 0 0 120.86432 1024h782.272a71.296 71.296 0 0 0 62.4-105.92zM444.96032 599.104l-150.976 261.312a32 32 0 0 1-43.776 11.712l-7.936-4.544a32 32 0 0 1-11.712-43.712L381.53632 562.56a32 32 0 0 1 43.776-11.712l7.936 4.544a32 32 0 0 1 11.776 43.712z" p-id="1947" data-spm-anchor-id="a313x.7781069.0.i1" class="selected" fill="#2bdac4"></path></svg>