<?xml version="1.0" standalone="no"?><!DOCTYPE svg PUBLIC "-//W3C//DTD SVG 1.1//EN" "http://www.w3.org/Graphics/SVG/1.1/DTD/svg11.dtd"><svg t="1584499443976" class="icon" viewBox="0 0 1024 1024" version="1.1" xmlns="http://www.w3.org/2000/svg" p-id="1135" xmlns:xlink="http://www.w3.org/1999/xlink" width="200" height="200"><defs><style type="text/css"></style></defs><path d="M512 928c229.44 0 416-186.56 416-416S741.44 96 512 96 96 282.56 96 512s186.56 416 416 416z m0-896c264.672 0 480 215.36 480 480s-215.328 480-480 480C247.36 992 32 776.64 32 512S247.36 32 512 32z m224 448c17.632 0 32 14.4 32 32s-14.368 32-32 32h-192v192c0 17.6-14.368 32-32 32-17.6 0-32-14.4-32-32v-192H288c-17.6 0-32-14.4-32-32s14.4-32 32-32h192V288c0-17.6 14.4-32 32-32 17.632 0 32 14.4 32 32v192h192z" p-id="1136"></path></svg>