<?xml version="1.0" standalone="no"?><!DOCTYPE svg PUBLIC "-//W3C//DTD SVG 1.1//EN" "http://www.w3.org/Graphics/SVG/1.1/DTD/svg11.dtd"><svg t="1584418143072" class="icon" viewBox="0 0 1024 1024" version="1.1" xmlns="http://www.w3.org/2000/svg" p-id="4346" xmlns:xlink="http://www.w3.org/1999/xlink" width="114" height="114"><defs><style type="text/css"></style></defs><path d="M951.296 682.496c12.8 0 21.504-9.216 21.504-22.528V287.232L801.28 102.4H323.584c-47.104 0-85.504 40.448-85.504 90.112v74.24H94.208c-23.552 0-43.008 20.48-43.008 45.056v446.976c0 25.088 19.456 45.056 43.008 45.056h143.36v58.368c0 49.664 38.4 90.112 85.504 90.112h563.712c47.104 0 85.504-40.448 85.504-90.112v-67.584c0-13.312-8.704-22.528-21.504-22.528s-21.504 9.216-21.504 22.528v67.584c0 25.088-19.456 45.056-43.008 45.056H323.584c-23.552 0-43.008-20.48-43.008-45.056v-58.88h235.52c23.552 0 43.008-20.48 43.008-45.056V312.32c0-24.576-19.456-45.056-43.008-45.056h-235.52V192.512c0-25.088 19.456-45.056 43.008-45.056h435.2v117.248c0 36.352 27.648 67.584 64.512 67.584h107.008v327.168c-0.512 13.824 8.192 23.04 20.992 23.04zM304.128 499.712l47.104-72.192h64.512l-75.264 112.64 90.112 131.072h-66.56l-57.856-85.504-57.856 85.504h-66.56l90.112-131.072-77.312-112.64h66.56l43.008 72.192z m518.656-212.48c-12.8 0-21.504-9.216-21.504-22.528V165.376l111.616 121.856h-90.112z" fill="#45B058" p-id="4347"></path><path d="M739.84 693.248h-101.376c-12.288 0-20.48 9.216-20.48 23.552s8.192 23.552 20.48 23.552h101.376c12.288 0 19.968-9.216 19.968-23.552 0.512-14.336-7.68-23.552-19.968-23.552z m0-118.272h-101.376c-12.288 0-20.48 9.216-20.48 23.552s8.192 23.552 20.48 23.552h101.376c12.288 0 19.968-9.216 19.968-23.552s-7.68-23.552-19.968-23.552z m0-118.272h-101.376c-12.288 0-20.48 9.216-20.48 23.552s8.192 23.552 20.48 23.552h101.376c12.288 0 19.968-9.216 19.968-23.552 0.512-13.824-7.68-23.552-19.968-23.552z" fill="#45B058" p-id="4348"></path></svg>