<?xml version="1.0" standalone="no"?><!DOCTYPE svg PUBLIC "-//W3C//DTD SVG 1.1//EN" "http://www.w3.org/Graphics/SVG/1.1/DTD/svg11.dtd"><svg t="1584418249898" class="icon" viewBox="0 0 1024 1024" version="1.1" xmlns="http://www.w3.org/2000/svg" p-id="6538" xmlns:xlink="http://www.w3.org/1999/xlink" width="114" height="114"><defs><style type="text/css"></style></defs><path d="M687.29558 28.962342H270.072478c-47.956597 0-86.987919 39.010155-86.98792 86.980864v94.636139h46.016321V115.943911c0-22.598938 18.386772-40.978655 40.971599-40.978655h398.01083l222.976658 225.41788v588.609553c0 22.598232-18.386772 40.978655-40.98571 40.978655H270.072478c-22.584827 0-40.971599-18.380422-40.971599-40.978655V585.258165h-46.016321v303.734524c0 47.962947 39.031322 86.980158 86.98792 86.980158h580.001778c47.962947 0 86.980864-39.017211 86.980863-86.980158V281.474252L687.29558 28.962342z" fill="#509937" p-id="6539"></path><path d="M548.343509 289.320028h-61.830638v295.938843H283.558463v61.942821H548.343509z" fill="#FFFFFF" p-id="6540"></path><path d="M420.458074 537.00594V210.096745H94.066051v326.910606h326.392728v-0.001411z m-43.872843-62.638499l-77.224445-0.647699-44.798531-53.974985-44.802765 53.974985-77.232206 0.647699 84.493781-99.85231L132.527284 272.753588l73.63599 0.179211 48.399686 57.197962 48.386281-57.197962 73.636695-0.179211-84.475437 101.760838 84.474732 99.853015z" fill="#509937" p-id="6541"></path><path d="M471.708909 290.731139v295.938842H268.748151v61.942821h264.789984V290.731139z" fill="#509937" p-id="6542"></path><path d="M687.361197 61.03336v174.682806c0 35.201568 28.796536 63.991048 63.979054 63.991048h171.780856L687.361197 61.03336z" fill="#509937" p-id="6543"></path></svg>