<?xml version="1.0" standalone="no"?><!DOCTYPE svg PUBLIC "-//W3C//DTD SVG 1.1//EN" "http://www.w3.org/Graphics/SVG/1.1/DTD/svg11.dtd"><svg t="1585029012817" class="icon" viewBox="0 0 1024 1024" version="1.1" xmlns="http://www.w3.org/2000/svg" p-id="10796" xmlns:xlink="http://www.w3.org/1999/xlink" width="200" height="200"><defs><style type="text/css"></style></defs><path d="M1023.995392 585.16224v237.668736c0 13.721504-2.969579 26.521414-8.959937 38.297332-5.939158 11.827117-14.079901 20.787054-24.473429 26.879812l-210.788924 127.999104a46.591674 46.591674 0 0 1-26.828613 7.987144 46.591674 46.591674 0 0 1-26.828612-7.987144l-210.840124-127.999104a30.361387 30.361387 0 0 1-3.276777-2.303984 10.342328 10.342328 0 0 1-3.276777 2.303984l-210.840124 127.999104a46.591674 46.591674 0 0 1-26.828612 7.987144 46.591674 46.591674 0 0 1-26.828613-7.987144l-210.788924-127.999104a63.282757 63.282757 0 0 1-24.473429-26.879812A83.762614 83.762614 0 0 1 0.00256 822.830976V585.21344c0-14.489499 3.379176-27.852605 10.137529-40.03812a68.095523 68.095523 0 0 1 26.572614-27.391808l204.23537-106.290456V182.784257c0-14.438299 3.379176-27.801405 10.137529-39.935721a68.095523 68.095523 0 0 1 26.572614-27.494207L488.447141 5.735896A49.663652 49.663652 0 0 1 511.998976 0.001536a49.663652 49.663652 0 0 1 23.551835 5.73436l210.788925 109.669632c11.007923 6.143957 19.865461 15.257493 26.623813 27.443008 6.707153 12.185515 10.086329 25.548621 10.08633 39.98692v228.6064l204.28657 106.290456c11.263921 6.092757 20.172659 15.206294 26.777412 27.391808 6.604754 12.185515 9.881531 25.548621 9.881531 40.03812zM271.053463 673.123224l190.104269-98.815308-190.104269-98.866508-190.10427 98.815308 190.10427 98.866508z m30.105389 259.428584l180.734735-109.669632v-179.454744l-180.734735 93.695344v195.429032zM511.998976 289.125912l207.512147-108.031244L511.998976 73.217023 304.486829 181.145868 511.998976 289.177112z m30.105389 216.574484l180.734735-94.25854V259.43012l-180.734735 93.695344v152.574932z m210.840124 167.422828l190.10427-98.815308-190.10427-98.866508-190.104269 98.815308 190.104269 98.866508z m30.10539 259.428584l180.734735-109.669632v-179.454744l-180.734735 93.695344v195.429032z" p-id="10797" data-spm-anchor-id="a313x.7781069.0.i2" class="" fill="#e0620d"></path></svg>