<?xml version="1.0" standalone="no"?><!DOCTYPE svg PUBLIC "-//W3C//DTD SVG 1.1//EN" "http://www.w3.org/Graphics/SVG/1.1/DTD/svg11.dtd"><svg t="1589860609819" class="icon" viewBox="0 0 1024 1024" version="1.1" xmlns="http://www.w3.org/2000/svg" p-id="2722" xmlns:xlink="http://www.w3.org/1999/xlink" width="16" height="16"><defs><style type="text/css"></style></defs><path d="M512 512m-439.36 0a439.36 439.36 0 1 0 878.72 0 439.36 439.36 0 1 0-878.72 0Z" fill="#f3603a" p-id="2723" data-spm-anchor-id="a313x.7781069.0.i1" class="selected"></path><path d="M598.45 392.63a23 23 0 0 0-46.05-1h-0.21l-76 241.29a23 23 0 1 0 45.79 3.72h0.21l76-241.29a22.82 22.82 0 0 0 0.26-2.72zM412.18 369.55a23 23 0 0 0-23 22H389l0.14 127L319 448.52l-0.19 0.19-70.32-70.32a23.26 23.26 0 0 0-1.7-2.07 23 23 0 0 0-17.48-6.71c-0.51 0-1-0.06-1.53-0.06a23 23 0 0 0-23 22h-0.21l0.26 241.29a23 23 0 1 0 45.79 3.72h0.21l-0.21-191 50.55 50.54 0.18-0.18 87.41 87.41 0.37 0.48 0.05 49a23 23 0 1 0 45.82 3.78h0.21L435 395.3a22.82 22.82 0 0 0 0.26-2.67 23.08 23.08 0 0 0-23.08-23.08zM849.85 625.57a21.89 21.89 0 0 0-1.38-2.3l-45.57-94.95 0.24-0.11L731 382.45l-0.19 0.09a24.32 24.32 0 0 0-42.12 0l-0.19-0.09-72.17 145.76 0.23 0.11L571 623.27a22.07 22.07 0 0 0-1.38 2.3 23 23 0 0 0 41.06 20.87l0.18 0.09 23.71-49.43 150.19-0.23 23.83 49.67 0.18-0.09a23 23 0 0 0 41.06-20.87z m-193.67-73.51l11-22.85-0.24-0.11 42.83-86 42.83 86-0.24 0.11 10.88 22.68z" fill="#FFFFFF" p-id="2724"></path></svg>