<?xml version="1.0" standalone="no"?><!DOCTYPE svg PUBLIC "-//W3C//DTD SVG 1.1//EN" "http://www.w3.org/Graphics/SVG/1.1/DTD/svg11.dtd"><svg t="1584418305786" class="icon" viewBox="0 0 1024 1024" version="1.1" xmlns="http://www.w3.org/2000/svg" p-id="7851" xmlns:xlink="http://www.w3.org/1999/xlink" width="114" height="114"><defs><style type="text/css"></style></defs><path d="M296.846388 693.782083c-20.47863 18.430767-24.574357 24.574357-24.574356 63.483755h-43.005124v-20.478631a73.403091 73.403091 0 0 1 26.622219-63.483754 229.040683 229.040683 0 0 0 26.62222-26.62222 76.794864 76.794864 0 0 0 16.382904-36.861535c0-28.670083-24.574357-43.005124-53.244439-43.005124a52.476491 52.476491 0 0 0-53.244439 51.196577h-51.196576a103.097105 103.097105 0 0 1 104.441015-102.393153A96.569542 96.569542 0 0 1 350.090828 609.819698a91.193901 91.193901 0 0 1-24.574357 59.388029 80.186638 80.186638 0 0 1-28.670083 24.574356z m-10.239315 155.637592H216.979729v-44.797004h69.627344z m141.302551-401.317162H63.453997a47.484824 47.484824 0 0 0-53.24444 43.005124v372.647079a52.476491 52.476491 0 0 0 53.24444 51.196577h104.185032l77.818796 104.441015 77.818796-104.441015h104.441015a52.476491 52.476491 0 0 0 53.24444-51.196577V491.107637A47.484824 47.484824 0 0 0 427.909624 448.038517z" fill="#FFFFFF" p-id="7852"></path><path d="M731.633312 0.068475v182.835773a36.605552 36.605552 0 0 0 36.605552 36.541557h182.771777V584.989359H73.181346V40.129796A39.293372 39.293372 0 0 1 114.84256 0.068475z" fill="#ECB0B2" p-id="7853"></path><path d="M731.697308 0.068475l219.50532 219.441325h-182.899768a36.605552 36.605552 0 0 1-36.605552-36.541556z" fill="#F07275" p-id="7854"></path><path d="M219.539558 292.592913h585.304858v36.285573H219.539558z m0 149.494002h585.304858v36.285574H219.539558z m761.549072 143.030435a42.813137 42.813137 0 0 1 42.685145 42.813137v353.256376a42.877133 42.877133 0 0 1-42.685145 42.813137H42.719383A42.877133 42.877133 0 0 1 0.034238 981.186863v-353.256376a42.813137 42.813137 0 0 1 42.685145-42.813137h938.689225zM197.333043 702.165523a88.058111 88.058111 0 0 0-70.395292 29.31004 119.92798 119.92798 0 0 0 0 145.078297 89.594008 89.594008 0 0 0 70.395292 29.118053 90.361957 90.361957 0 0 0 70.395293-28.798074 119.544005 119.544005 0 0 0 0-145.590264 89.594008 89.594008 0 0 0-70.395293-29.118052z m188.531392 54.076383a34.68568 34.68568 0 0 0-23.038459 7.999465 42.237175 42.237175 0 0 0-13.75908 17.278845v-21.758545H320.012839v141.814516h29.054057v-75.130976a41.661214 41.661214 0 0 1 10.943268-30.205979 31.99786 31.99786 0 0 1 23.614421-10.687286 70.011318 70.011318 0 0 1 20.542626 3.007799v-28.798074a41.469227 41.469227 0 0 0-18.366771-3.647756z m100.089307 0a78.842727 78.842727 0 0 0-42.237176 9.599358 48.316769 48.316769 0 0 0-22.782476 33.981728l28.734078 2.495833a25.150318 25.150318 0 0 1 12.41517-17.534827 42.685145 42.685145 0 0 1 21.950532-4.991667q31.99786 0 31.99786 29.630019v5.759615l-31.99786 0.831944a87.866124 87.866124 0 0 0-48.89273 12.799144 41.661214 41.661214 0 0 0-18.878738 36.733544 35.517625 35.517625 0 0 0 13.375106 28.798074 50.108649 50.108649 0 0 0 34.621685 11.263246 77.370826 77.370826 0 0 0 32.8938-6.847542 59.06805 59.06805 0 0 0 20.542626-17.022861v20.03066h26.942198v-90.489948a55.228307 55.228307 0 0 0-12.799144-39.48536 60.667943 60.667943 0 0 0-45.820935-15.55096z m155.317613 0a62.843797 62.843797 0 0 0-51.196576 22.206515 88.954051 88.954051 0 0 0 0 105.848922 62.459823 62.459823 0 0 0 50.492623 21.438566 67.067515 67.067515 0 0 0 43.901064-13.75908 69.307365 69.307365 0 0 0 21.758545-42.493158h-28.798074a33.149783 33.149783 0 0 1-36.477561 32.317839 32.637817 32.637817 0 0 1-28.222112-13.375106 61.179909 61.179909 0 0 1-10.17532-37.565488 57.596148 57.596148 0 0 1 10.431303-37.309505 33.277775 33.277775 0 0 1 28.222112-13.439101 37.757475 37.757475 0 0 1 23.870404 6.847542 32.44583 32.44583 0 0 1 11.775212 21.118588h28.798075a60.155977 60.155977 0 0 0-20.862605-39.48536 70.779267 70.779267 0 0 0-43.581086-12.415169z m93.30576-54.076383v199.666647h29.054057v-199.666647z m125.431612 54.076383a61.179909 61.179909 0 0 0-49.660679 21.630554 86.010248 86.010248 0 0 0 1.087927 108.344754 64.955656 64.955656 0 0 0 49.660679 19.518695 69.179374 69.179374 0 0 0 46.908863-16.254913 63.99572 63.99572 0 0 0 19.198716-33.149783h-29.054057a49.276705 49.276705 0 0 1-12.799144 18.302776 40.509291 40.509291 0 0 1-24.638352 7.167521 35.325638 35.325638 0 0 1-27.134186-10.943269 52.988456 52.988456 0 0 1-11.263246-31.99786h107.576805a96.953516 96.953516 0 0 0-17.022861-59.260037 62.395827 62.395827 0 0 0-52.860465-23.358438z" fill="#D01E23" p-id="7855"></path><path d="M197.333043 728.531759a58.556084 58.556084 0 0 0-48.508756 21.118588 98.297426 98.297426 0 0 0 0 108.792725 67.195506 67.195506 0 0 0 96.825525 0.511965 83.194436 83.194436 0 0 0 16.830875-54.844332 84.922321 84.922321 0 0 0-16.830875-55.356298 58.684076 58.684076 0 0 0-48.316769-20.222648z m318.826679 107.832789l-29.949997 0.831944c-26.62222 0.575961-39.805338 9.855341-39.805338 27.454164a16.062926 16.062926 0 0 0 6.847542 13.439102 27.646151 27.646151 0 0 0 17.854806 5.503632 47.292837 47.292837 0 0 0 31.54989-11.263247 35.197646 35.197646 0 0 0 13.439101-27.710147z m344.616954-56.252238a34.749676 34.749676 0 0 0-26.046259 9.599358 47.932794 47.932794 0 0 0-11.839208 27.454164h76.794864a35.965595 35.965595 0 0 0-38.909397-37.053522z" fill="#D01E23" p-id="7856"></path></svg>