<?xml version="1.0" standalone="no"?><!DOCTYPE svg PUBLIC "-//W3C//DTD SVG 1.1//EN" "http://www.w3.org/Graphics/SVG/1.1/DTD/svg11.dtd"><svg t="1584418274223" class="icon" viewBox="0 0 1024 1024" version="1.1" xmlns="http://www.w3.org/2000/svg" p-id="7428" xmlns:xlink="http://www.w3.org/1999/xlink" width="114" height="114"><defs><style type="text/css"></style></defs><path d="M981.982017 711.650695a131.41145 131.41145 0 0 1-60.251579 99.631696l-353.47593 199.657193a116.958947 116.958947 0 0 1-57.613111 12.995439 136.176444 136.176444 0 0 1-60.212199-12.995439l-350.876842-199.657193a131.37207 131.37207 0 0 1-60.212199-99.631696V312.336309a132.750374 132.750374 0 0 1 60.212199-100.025497L453.028286 12.653619A121.802702 121.802702 0 0 1 510.641397 0.051982a142.044082 142.044082 0 0 1 60.212199 12.601637l353.51531 199.657193a132.750374 132.750374 0 0 1 60.212199 100.025497z m-154.251918-202.413801a207.336316 207.336316 0 0 0-209.462842-204.776608h-212.652632a207.375696 207.375696 0 0 0-209.502222 204.776608v5.513216a207.375696 207.375696 0 0 0 209.502222 204.776609h212.652632a207.336316 207.336316 0 0 0 209.462842-204.776609v-5.513216zM612.51776 657.699935H411.403502a144.68255 144.68255 0 0 1-146.375894-142.949825v-5.513216a144.997591 144.997591 0 0 1 146.375894-143.343626h201.114258a144.997591 144.997591 0 0 1 146.375895 143.343626v5.513216a144.68255 144.68255 0 0 1-146.375895 142.949825z" p-id="7429" fill="#e52213"></path></svg>