<?xml version="1.0" standalone="no"?><!DOCTYPE svg PUBLIC "-//W3C//DTD SVG 1.1//EN" "http://www.w3.org/Graphics/SVG/1.1/DTD/svg11.dtd"><svg t="1584418039558" class="icon" viewBox="0 0 1024 1024" version="1.1" xmlns="http://www.w3.org/2000/svg" p-id="3185" xmlns:xlink="http://www.w3.org/1999/xlink" width="114" height="114"><defs><style type="text/css"></style></defs><path d="M921.6 1024H102.4c-58.026667 0-102.4-44.373333-102.4-102.4V102.4c0-58.026667 44.373333-102.4 102.4-102.4h819.2c58.026667 0 102.4 44.373333 102.4 102.4v819.2c0 58.026667-44.373333 102.4-102.4 102.4z" fill="#1195db" p-id="3186" data-spm-anchor-id="a313x.7781069.0.i10" class=""></path><path d="M774.826667 774.826667c-95.573333 102.4-242.346667 136.533333-368.64 95.573333L477.866667 819.2l-252.586667-3.413333 163.84 177.493333-10.24-75.093333c146.773333 51.2 317.44 13.653333 433.493333-105.813334 119.466667-126.293333 143.36-307.2 71.68-453.973333l-37.546666 40.96c51.2 122.88 27.306667 269.653333-71.68 375.466667zM669.013333 150.186667c-153.6-61.44-334.506667-27.306667-453.973333 98.986666-126.293333 133.12-143.36 331.093333-58.026667 481.28l37.546667-40.96c-64.853333-129.706667-47.786667-293.546667 58.026667-406.186666 102.4-105.813333 252.586667-136.533333 382.293333-92.16L559.786667 238.933333l249.173333 34.133334-143.36-211.626667 3.413333 88.746667z" fill="#FFFFFF" p-id="3187"></path></svg>